<svg width="858" height="682" viewBox="0 0 858 682" fill="none" xmlns="http://www.w3.org/2000/svg">
<path opacity="0.5" d="M46.0464 681.28L5.26675 640.501L109.375 536.393L213.483 640.501L172.703 681.28H177.141L215.642 642.78L254.142 681.28H258.58L217.8 640.501L321.788 536.513L425.776 640.501L384.997 681.28H389.435L427.935 642.78L466.436 681.28H470.874L430.094 640.501L534.202 536.393L638.31 640.501L597.531 681.28H601.968L640.469 642.78L678.97 681.28H683.408L642.628 640.501L746.736 536.393L850.844 640.501L810.064 681.28H814.502L853.003 642.78L857.8 647.577V643.139L855.282 640.621L857.8 638.102V633.664L853.003 638.462L748.895 534.354L852.883 430.366L857.8 435.283V430.846L855.042 428.087L857.8 425.328V420.891L852.883 425.808L748.775 321.7L852.883 217.592L857.8 222.51V217.952L641.429 1.58018L640.349 0.500762L1.90844 639.421L0.828987 640.501L41.6086 681.28H46.0464ZM428.175 638.342L324.187 534.354L428.295 430.246L532.283 534.234L428.175 638.342ZM430.454 427.967L534.562 323.859L638.55 427.847L534.442 531.955L430.454 427.967ZM536.841 321.58L640.829 217.592L744.817 321.58L640.829 425.568L536.841 321.58ZM640.829 638.342L536.721 534.234L640.829 430.126L744.937 534.234L640.829 638.342ZM851.084 427.967L747.096 531.955L642.988 427.847L746.976 323.859L851.084 427.967ZM851.084 215.313L746.976 319.421L642.988 215.433L747.096 111.325L851.084 215.313ZM640.829 5.05847L744.937 109.166L640.829 213.274L536.721 109.166L640.829 5.05847ZM534.442 111.325L638.55 215.433L534.562 319.421L430.454 215.313L534.442 111.325ZM428.295 217.472L532.403 321.58L428.295 425.808L324.187 321.7L428.295 217.472ZM321.908 323.859L426.016 427.967L321.908 532.075L217.8 427.967L321.908 323.859ZM215.642 430.246L319.749 534.354L215.761 638.342L111.654 534.234L215.642 430.246Z" fill="#6D6E71"/>
</svg>
